<svg width="305" height="112" fill="none" xmlns="http://www.w3.org/2000/svg"><path fill-rule="evenodd" clip-rule="evenodd" d="M294.394 43h-31.71c-5.544 0-10.078-5.133-10.078-10.999 0-5.867 4.534-12.001 10.078-12.001h19.524c5.543 0 10.078-3.467 10.078-9.334C292.286 4.8 287.751 0 282.208 0h-96.081c-5.543 0-10.079 4.8-10.079 10.666l-8.147.001v46.798h21.125c1.533 3.83 5.126 6.535 9.286 6.535h96.082c5.542 0 10.078-4.8 10.078-10.666 0-5.867-4.536-10.334-10.078-10.334z" fill="#F7F9FA"/><path fill-rule="evenodd" clip-rule="evenodd" d="M290.406 55h-58.913c-.853 0-1.544-.671-1.544-1.5s.691-1.5 1.544-1.5h58.913c.852 0 1.543.671 1.543 1.5s-.691 1.5-1.543 1.5zm12.547-22h-38.007c-.55 0-.997-.671-.997-1.5s.447-1.5.997-1.5h38.007c.55 0 .996.671.996 1.5s-.446 1.5-.996 1.5z" fill="#E4E8EB"/><path fill-rule="evenodd" clip-rule="evenodd" d="M28.364 56c-5.562 0-10.112 4.2-10.112 9.333 0 4.962 4.254 9.399 9.562 9.667h21.065c5.563 0 10.114 3.867 10.114 9 0 5.132-4.55 8.998-10.111 9H17.063c-5.563 0-10.114 4.534-10.114 9.667S11.501 112 17.063 112h104.471c5.562 0 10.113-4.2 10.113-9.333 0-3.623-2.271-6.773-5.56-8.317V74.666h6.749c5.562 0 10.113-4.2 10.113-9.333 0-5.134-4.551-9.333-10.113-9.333H28.364z" fill="#F7F9FA"/><path fill-rule="evenodd" clip-rule="evenodd" d="M81.615 43H26.283c-.737 0-1.334-.671-1.334-1.5s.597-1.5 1.334-1.5h55.332c.737 0 1.335.671 1.335 1.5s-.598 1.5-1.335 1.5zm-12.62 24h-32.09c-1.08 0-1.956-.671-1.956-1.5s.876-1.5 1.955-1.5h32.09c1.08 0 1.956.671 1.956 1.5s-.876 1.5-1.955 1.5zM47.58 85.5H2.32c-.757 0-1.37-.671-1.37-1.5s.613-1.5 1.37-1.5h45.26c.756 0 1.37.671 1.37 1.5s-.614 1.5-1.37 1.5zM167.949 51h-1.5v-5.5c0-7.456-6.044-13.5-13.5-13.5s-13.5 6.044-13.5 13.5V51h-1.5a4 4 0 0 0-4 4v21a4 4 0 0 0 4 4h30a4 4 0 0 0 4-4V55a4 4 0 0 0-4-4zm-19 12a4 4 0 1 1 6 3.446V71a2 2 0 1 1-4 0v-4.554a3.988 3.988 0 0 1-2-3.446zm4-26a8.5 8.5 0 0 0-8.5 8.5V50a1 1 0 0 0 1 1h15a1 1 0 0 0 1-1v-4.5a8.5 8.5 0 0 0-8.5-8.5z" fill="#E4E8EB"/><ellipse cx="165.278" cy="57.23" rx="54.705" ry="54.596" fill="#C7EDED"/><ellipse cx="161.869" cy="55.164" rx="54.705" ry="54.596" fill="#fff"/><mask id="a" fill="#fff"><path d="M109.028 69.294a54.59 54.59 0 0 0 19.586 29.22 54.779 54.779 0 0 0 33.375 11.246 54.78 54.78 0 0 0 33.325-11.392 54.584 54.584 0 0 0 19.458-29.305 54.49 54.49 0 0 0-2.478-35.069 54.63 54.63 0 0 0-23.385-26.29 54.799 54.799 0 0 0-34.597-6.612A54.746 54.746 0 0 0 122.848 16.9l.801.786a53.623 53.623 0 0 1 30.818-15.484 53.673 53.673 0 0 1 33.887 6.476 53.508 53.508 0 0 1 22.905 25.751 53.37 53.37 0 0 1 2.427 34.348 53.47 53.47 0 0 1-19.058 28.704 53.654 53.654 0 0 1-32.641 11.158 53.654 53.654 0 0 1-32.69-11.015 53.467 53.467 0 0 1-19.184-28.62l-1.085.29z"/></mask><path d="M109.028 69.294a54.59 54.59 0 0 0 19.586 29.22 54.779 54.779 0 0 0 33.375 11.246 54.78 54.78 0 0 0 33.325-11.392 54.584 54.584 0 0 0 19.458-29.305 54.49 54.49 0 0 0-2.478-35.069 54.63 54.63 0 0 0-23.385-26.29 54.799 54.799 0 0 0-34.597-6.612A54.746 54.746 0 0 0 122.848 16.9l.801.786a53.623 53.623 0 0 1 30.818-15.484 53.673 53.673 0 0 1 33.887 6.476 53.508 53.508 0 0 1 22.905 25.751 53.37 53.37 0 0 1 2.427 34.348 53.47 53.47 0 0 1-19.058 28.704 53.654 53.654 0 0 1-32.641 11.158 53.654 53.654 0 0 1-32.69-11.015 53.467 53.467 0 0 1-19.184-28.62l-1.085.29z" fill="#fff" stroke="#111010" stroke-width="2" stroke-linecap="round" stroke-linejoin="round" mask="url(#a)"/><mask id="b" mask-type="alpha" maskUnits="userSpaceOnUse" x="107" y="0" width="110" height="110"><path d="M216.074 55.164c0 29.875-24.267 54.096-54.205 54.096-24.429 0-45.085-16.129-51.857-38.298a53.974 53.974 0 0 1-2.348-15.798c0-14.072 5.384-26.89 14.209-36.512 9.911-10.807 24.16-17.583 39.996-17.583 29.938 0 54.205 24.22 54.205 54.095z" fill="#fff" stroke="#111010"/></mask><g mask="url(#b)"><path fill-rule="evenodd" clip-rule="evenodd" d="M172.174 67.8h-9.052v4.025h1.889v2.46h-1.889v3.181h1.59l-11.286 42.038 1.599.428 11.402-42.466h.393v43.747h1.656V77.466h.512l11.692 43.548 1.6-.428-11.577-43.12h1.471v-3.18h-1.888v-2.461h1.888V67.8z" fill="#111010"/></g><path d="M100.345 62.102c11.147 0 20.184-10.164 20.184-22.703 0-8.507-2.382-16.195-8.539-20.082l91.601 45.404-2.329 8.732-97.811-9.605-5.434-2.62c1.234.266 1.025.874 2.328.874zm5.97-44.396-2.088-1.009-.069.404c.734.158 1.454.36 2.157.605z" fill="#111010"/><mask id="c" fill="#fff"><path fill-rule="evenodd" clip-rule="evenodd" d="M141.939 67.79c7.767.743 14.633-6.13 15.335-15.351.703-9.221-5.024-17.3-12.79-18.042a11.997 11.997 0 0 0-2.355.005c6.258 1.93 10.58 9.264 9.95 17.54-.631 8.275-6 14.681-12.46 15.394.749.224 1.524.377 2.32.453z"/></mask><path fill-rule="evenodd" clip-rule="evenodd" d="M141.939 67.79c7.767.743 14.633-6.13 15.335-15.351.703-9.221-5.024-17.3-12.79-18.042a11.997 11.997 0 0 0-2.355.005c6.258 1.93 10.58 9.264 9.95 17.54-.631 8.275-6 14.681-12.46 15.394.749.224 1.524.377 2.32.453z" fill="#fff"/><path d="m157.274 52.439-.995-.096.995.096zm-15.335 15.35.076-.997-.076.997zm2.545-33.392-.076.997.076-.997zm-2.355.005-.119-.996-.157 1.953.276-.957zm9.95 17.54-.996-.096.996.096zm-12.46 15.394-.128-.996-.139 1.956.267-.96zm16.66-14.993c-.673 8.836-7.199 15.125-14.264 14.45l-.151 1.993c8.468.811 15.674-6.645 16.406-16.251l-1.991-.192zm-11.871-16.95c7.065.677 12.544 8.114 11.871 16.95l1.991.192c.732-9.607-5.242-18.325-13.711-19.136l-.151 1.995zm-2.16.006a11.005 11.005 0 0 1 2.16-.005l.151-1.995a12.979 12.979 0 0 0-2.549.007l.238 1.993zm-.395-.04c5.678 1.752 9.836 8.54 9.23 16.487l1.991.191c.656-8.605-3.831-16.483-10.669-18.592l-.552 1.914zm9.23 16.487c-.605 7.947-5.731 13.847-11.592 14.494l.257 1.992c7.057-.78 12.671-7.69 13.326-16.295l-1.991-.19zm-9.068 14.946a11.13 11.13 0 0 1-2.128-.416l-.535 1.92c.811.242 1.65.408 2.512.49l.151-1.994z" fill="#111010" mask="url(#c)"/><mask id="d" fill="#fff"><path fill-rule="evenodd" clip-rule="evenodd" d="M172.286 71.645c4.963.475 9.363-4.091 9.828-10.2.466-6.108-3.18-11.444-8.143-11.92a7.4 7.4 0 0 0-1.519.011c3.943 1.245 6.661 5.878 6.263 11.105-.446 5.845-4.621 10.219-9.325 9.768a6.985 6.985 0 0 1-.755-.114 7.716 7.716 0 0 0 3.651 1.35z"/></mask><path fill-rule="evenodd" clip-rule="evenodd" d="M172.286 71.645c4.963.475 9.363-4.091 9.828-10.2.466-6.108-3.18-11.444-8.143-11.92a7.4 7.4 0 0 0-1.519.011c3.943 1.245 6.661 5.878 6.263 11.105-.446 5.845-4.621 10.219-9.325 9.768a6.985 6.985 0 0 1-.755-.114 7.716 7.716 0 0 0 3.651 1.35z" fill="#fff"/><path d="m182.114 61.445-.995-.095.995.095zm-9.828 10.2-.076.997.076-.997zm1.685-22.12-.075.998.075-.998zm-1.519.011-.128-.996-.155 1.951.283-.955zm6.263 11.105.995.095-.995-.095zm-9.325 9.768.076-.997-.076.997zm-.755-.114.183-.98-.736 1.803.553-.823zm12.484-8.945c-.439 5.759-4.526 9.703-8.758 9.298l-.151 1.994c5.694.545 10.408-4.644 10.9-11.101l-1.991-.191zm-7.223-10.827c4.231.405 7.662 5.067 7.223 10.827l1.991.191c.492-6.457-3.368-12.468-9.063-13.013l-.151 1.995zm-1.316.009a6.41 6.41 0 0 1 1.316-.01l.151-1.994a8.4 8.4 0 0 0-1.723.012l.256 1.992zm-.411-.04c3.369 1.062 5.924 5.155 5.55 10.053l1.991.191c.424-5.555-2.458-10.729-6.975-12.155l-.566 1.91zm5.55 10.053c-.419 5.506-4.288 9.247-8.253 8.867l-.152 1.994c5.444.521 9.925-4.485 10.396-10.67l-1.991-.191zm-8.253 8.867a5.985 5.985 0 0 1-.648-.098l-.367 1.962c.284.059.571.103.863.13l.152-1.994zm2.895 1.236a6.703 6.703 0 0 1-3.173-1.176l-1.106 1.646a8.734 8.734 0 0 0 4.128 1.524l.151-1.994z" fill="#111010" mask="url(#d)"/><path d="M204.792 68.918c-.19 2.493-2.034 4.209-3.97 4.023-1.936-.185-3.494-2.226-3.304-4.719.19-2.493 2.034-4.208 3.97-4.023 1.936.185 3.494 2.226 3.304 4.72z" fill="#111010" stroke="#111010"/><path d="M121.55 40.265c0 6.408-1.987 12.191-5.177 16.362-3.189 4.17-7.559 6.706-12.348 6.706-4.79 0-9.16-2.536-12.349-6.706S86.5 46.673 86.5 40.265c0-6.408 1.987-12.19 5.177-16.361 3.189-4.17 7.559-6.707 12.348-6.707 4.789 0 9.159 2.537 12.348 6.707 3.19 4.17 5.177 9.953 5.177 16.361z" fill="#fff" stroke="#111010"/><path d="M89.103 40.441c3.707-5.817 14.681-13.96 28.917 0-4.733 5.823-17.143 13.975-28.917 0z" fill="#C7EDED"/><ellipse cx="102.991" cy="40.265" rx="6.721" ry="7.532" fill="#111010"/><path d="m124.029 30.571 21.161 9.073m13.138 6.579 20.537 8.02" stroke="#fff" stroke-linecap="round"/><mask id="e" fill="#fff"><path d="M194.439 25.805a4.759 4.759 0 0 0-2.948-4.404 4.79 4.79 0 0 0-5.205 1.033 4.761 4.761 0 0 0-1.399 3.37h.801a3.974 3.974 0 0 1 3.975-3.968 3.981 3.981 0 0 1 3.673 2.45c.2.482.303.997.303 1.518h.8z"/></mask><path d="M194.439 25.805a4.759 4.759 0 0 0-2.948-4.404 4.79 4.79 0 0 0-5.205 1.033 4.761 4.761 0 0 0-1.399 3.37h.801a3.974 3.974 0 0 1 3.975-3.968 3.981 3.981 0 0 1 3.673 2.45c.2.482.303.997.303 1.518h.8z" stroke="#C7EDED" stroke-width="2" mask="url(#e)"/><mask id="f" fill="#fff"><path d="M184.887 25.805a4.759 4.759 0 0 0 2.948 4.403 4.787 4.787 0 0 0 5.205-1.033 4.76 4.76 0 0 0 1.399-3.37h-.801a3.955 3.955 0 0 1-1.164 2.805 3.969 3.969 0 0 1-2.811 1.162 3.98 3.98 0 0 1-3.673-2.45 3.955 3.955 0 0 1-.302-1.517h-.801z"/></mask><path d="M184.887 25.805a4.759 4.759 0 0 0 2.948 4.403 4.787 4.787 0 0 0 5.205-1.033 4.76 4.76 0 0 0 1.399-3.37h-.801a3.955 3.955 0 0 1-1.164 2.805 3.969 3.969 0 0 1-2.811 1.162 3.98 3.98 0 0 1-3.673-2.45 3.955 3.955 0 0 1-.302-1.517h-.801z" stroke="#111010" stroke-width="2" mask="url(#f)"/><path d="m126.763 83.915 5.121.525-3.017 4.164-2.104-4.69z" fill="#F3C1C2"/><path d="m120.875 8.117.168-5.17 4.402 2.73-4.57 2.44z" stroke="#111010"/><path fill="#C7EDED" d="m208.914 56.812 3.253 3.246-3.253 3.247-3.253-3.247z"/></svg>