<svg viewBox="0 0 242 113" xmlns="http://www.w3.org/2000/svg" xmlns:xlink="http://www.w3.org/1999/xlink"><defs><path id="a" d="M0 112.515h241.852V0H0z"/></defs><g fill="none" fill-rule="evenodd"><path d="M218.393 59.63h-30.48c-5.328 0-9.687-4.359-9.687-9.687 0-5.328 4.36-9.687 9.687-9.687h18.48v-.001h.287c5.328 0 9.687-4.36 9.687-9.688s-4.359-9.687-9.687-9.687h-53.905c-5.328 0-9.687 4.36-9.687 9.687h-7.832V73.07h20.305c1.473 3.479 4.927 5.935 8.926 5.935h53.906c5.328 0 9.687-4.36 9.687-9.687 0-5.328-4.36-9.687-9.687-9.687zM88.19 40.255H34.285c-5.327 0-9.687 4.359-9.687 9.687 0 5.15 4.076 9.383 9.16 9.66v.028h20.18c5.328 0 9.687 4.359 9.687 9.687 0 5.328-4.358 9.686-9.685 9.687H23.457c-5.327.001-9.685 4.36-9.685 9.687 0 5.329 4.359 9.687 9.687 9.687h53.905c5.329 0 9.687-4.358 9.687-9.687 0-3.76-2.175-7.028-5.325-8.632v-20.43h6.464c5.329 0 9.688-4.36 9.688-9.687 0-5.328-4.36-9.687-9.688-9.687" fill="#F2F2F2"/><path d="M220.11 70.646h-50.748a1.329 1.329 0 1 1 0-2.659h50.749a1.33 1.33 0 1 1 0 2.66M72.49 28.969H17.336a1.329 1.329 0 1 1 0-2.66H72.49a1.33 1.33 0 1 1 0 2.66m128.252 2.928h-21.828a1.33 1.33 0 1 1 0-2.66h21.828a1.329 1.329 0 1 1 0 2.66M65.56 51.271H43.73a1.33 1.33 0 1 1 0-2.659h21.83a1.329 1.329 0 1 1 0 2.66m174.962 0h-50.694a1.33 1.33 0 1 1 0-2.66h50.694a1.329 1.329 0 1 1 0 2.66M45.282 70.75H1.33a1.329 1.329 0 1 1 0-2.66h43.952a1.329 1.329 0 1 1 0 2.66" fill="#95CBCE"/><path d="M58.875 98.378h124.102" stroke="#27989F" stroke-width="3.5" stroke-linecap="round"/><mask id="b" fill="#fff"><use xlink:href="#a"/></mask><path fill="#FFF" mask="url(#b)" d="M72.49 98.378h96.871V20.879H72.489z"/><path d="M73.996 96.873h93.86V22.386h-93.86v74.487zm-3.013 3.012h99.885v-80.51H70.983v80.51z" fill="#27989F" mask="url(#b)"/><path d="M169.362 20.88H72.49V5.84a4.331 4.331 0 0 1 4.331-4.332h88.208a4.332 4.332 0 0 1 4.333 4.332v15.04z" fill="#95CBCE" mask="url(#b)"/><path d="M73.995 19.374h93.862V5.838a2.83 2.83 0 0 0-2.828-2.826H76.82a2.829 2.829 0 0 0-2.826 2.826v13.536zm96.873 3.012H70.983V5.838A5.845 5.845 0 0 1 76.821 0h88.208c3.22 0 5.839 2.62 5.839 5.838v16.548z" fill="#27989F" mask="url(#b)"/><path d="m138.243 75.329 17.34 17.34" stroke="#27989F" stroke-width="5" mask="url(#b)"/><path d="m172.924 105.386-4.625 4.623a3.278 3.278 0 0 1-4.623 0l-18.497-18.495a3.28 3.28 0 0 1 0-4.625l4.625-4.624a3.28 3.28 0 0 1 4.623 0l18.497 18.497a3.278 3.278 0 0 1 0 4.624" fill="#FFF" mask="url(#b)"/><path d="m172.924 105.386-4.625 4.623a3.278 3.278 0 0 1-4.623 0l-18.497-18.495a3.28 3.28 0 0 1 0-4.625l4.625-4.624a3.28 3.28 0 0 1 4.623 0l18.497 18.497a3.278 3.278 0 0 1 0 4.624z" stroke="#27989F" stroke-width="3.5" stroke-linecap="round" mask="url(#b)"/><path d="M138.266 40.671c9.577 9.577 9.577 25.104 0 34.682-9.577 9.576-25.103 9.576-34.68 0-9.578-9.578-9.578-25.105 0-34.682 9.577-9.577 25.103-9.577 34.68 0" fill="#FFF" mask="url(#b)"/><path d="M138.266 40.671c9.577 9.577 9.577 25.104 0 34.682-9.577 9.576-25.103 9.576-34.68 0-9.578-9.578-9.578-25.105 0-34.682 9.577-9.577 25.103-9.577 34.68 0z" stroke="#27989F" stroke-width="3.5" stroke-linecap="round" mask="url(#b)"/><path d="M120.708 72.598a2.846 2.846 0 0 1-1.927-.715c-.55-.476-.824-1.143-.824-2 0-.76.266-1.399.797-1.918.53-.519 1.182-.778 1.954-.778.76 0 1.4.259 1.919.778.518.519.778 1.158.778 1.918 0 .845-.272 1.509-.815 1.992a2.748 2.748 0 0 1-1.882.723m-8.831-21.608c0-1.146.368-2.307 1.103-3.484.736-1.176 1.81-2.15 3.222-2.923 1.412-.772 3.059-1.158 4.94-1.158 1.75 0 3.295.323 4.634.968 1.34.646 2.374 1.524 3.104 2.634a6.46 6.46 0 0 1 1.094 3.62c0 1.025-.208 1.924-.624 2.696a8.258 8.258 0 0 1-1.484 2c-.573.56-1.601 1.505-3.085 2.832-.41.374-.74.703-.988.986-.246.284-.43.543-.551.779-.12.234-.215.47-.28.705-.067.235-.167.65-.299 1.24-.23 1.255-.947 1.882-2.154 1.882-.628 0-1.154-.205-1.583-.615-.428-.41-.642-1.02-.642-1.828 0-1.014.156-1.891.47-2.633a6.676 6.676 0 0 1 1.249-1.955c.518-.561 1.218-1.228 2.099-2a38.333 38.333 0 0 0 1.674-1.529c.344-.344.633-.727.868-1.149.236-.423.354-.88.354-1.376 0-.965-.359-1.779-1.077-2.443-.718-.664-1.644-.995-2.778-.995-1.327 0-2.304.334-2.932 1.004-.627.67-1.158 1.656-1.593 2.96-.41 1.363-1.188 2.044-2.335 2.044a2.297 2.297 0 0 1-1.71-.714c-.464-.477-.696-.993-.696-1.548" fill="#27989F" mask="url(#b)"/></g></svg>